<?xml version="1.0" standalone="no"?>
<!DOCTYPE svg PUBLIC "-//W3C//DTD SVG 20010904//EN"
 "http://www.w3.org/TR/2001/REC-SVG-20010904/DTD/svg10.dtd">
<svg version="1.0" xmlns="http://www.w3.org/2000/svg"
 width="622.000000pt" height="583.000000pt" viewBox="0 0 622.000000 583.000000"
 preserveAspectRatio="xMidYMid meet">

<g transform="translate(0.000000,583.000000) scale(0.100000,-0.100000)"
fill="#000000" stroke="none">
<path d="M2855 4930 c-115 -4 -218 -8 -228 -9 -15 -1 -7 -15 37 -68 31 -37 53
-69 51 -71 -3 -3 -36 16 -75 42 -63 42 -70 44 -65 24 2 -13 27 -124 54 -248
28 -124 77 -342 110 -485 32 -143 65 -287 71 -320 23 -110 17 -106 193 -99 90
4 157 11 164 18 8 7 28 194 57 531 25 286 48 549 52 585 l6 65 -66 -65 c-36
-35 -66 -61 -66 -56 0 4 20 44 44 87 l45 79 -87 -2 c-48 -1 -181 -5 -297 -8z"/>
<path d="M3451 4838 c16 -46 28 -87 26 -92 -2 -5 -25 23 -52 63 -27 39 -51 71
-55 71 -3 0 -21 -107 -39 -237 -18 -131 -55 -392 -82 -580 -26 -189 -46 -350
-43 -358 6 -14 30 -25 206 -86 86 -29 100 -32 112 -19 20 21 522 1060 512
1060 -2 0 -38 -16 -81 -35 -43 -20 -79 -34 -81 -33 -1 2 31 31 71 64 l74 62
-292 101 c-160 56 -295 101 -299 101 -3 0 7 -37 23 -82z"/>
<path d="M2205 4789 c-99 -43 -229 -99 -289 -125 l-108 -47 81 -45 c45 -24 80
-46 78 -48 -2 -3 -41 4 -86 15 -70 16 -81 16 -77 4 7 -17 102 -156 434 -638
159 -231 234 -331 248 -333 26 -4 274 108 287 129 8 12 -32 158 -158 575 -92
307 -168 560 -169 561 -2 2 -18 -34 -37 -80 -39 -93 -48 -82 -29 35 6 39 9 72
8 73 -2 1 -84 -33 -183 -76z"/>
<path d="M4190 4558 c0 -114 -13 -128 -34 -38 -9 40 -16 79 -16 86 0 8 -3 14
-8 14 -14 0 -592 -1024 -587 -1040 7 -21 230 -210 248 -210 12 0 504 445 786
712 l94 89 -74 -1 c-103 -2 -103 -2 -14 29 44 15 79 31 78 35 -2 7 -442 388
-462 401 -8 4 -11 -20 -11 -77z"/>
<path d="M1441 4266 l-224 -224 74 -7 c118 -12 123 -20 24 -36 l-88 -14 34
-27 c107 -81 938 -632 959 -635 22 -4 42 13 134 107 71 73 106 118 103 129 -2
9 -112 151 -243 316 -132 165 -294 369 -361 453 l-122 153 -5 -43 c-4 -24 -7
-65 -9 -93 -2 -50 -2 -50 -27 48 l-25 97 -224 -224z"/>
<path d="M4299 3682 c-310 -240 -465 -366 -467 -379 -4 -24 122 -281 141 -289
7 -2 238 77 513 177 274 99 520 188 547 197 26 9 47 19 47 22 0 4 -36 19 -80
34 -44 16 -80 31 -80 33 0 3 43 2 95 -2 52 -4 95 -3 94 2 0 4 -62 131 -138
282 l-137 273 -42 -87 c-24 -48 -45 -85 -48 -82 -3 3 1 42 10 88 9 46 14 84
12 86 -1 2 -212 -158 -467 -355z"/>
<path d="M1192 3889 c22 -59 49 -151 46 -154 -2 -2 -26 29 -53 70 -28 41 -53
75 -56 75 -9 0 -264 -559 -257 -565 2 -1 39 6 82 16 43 11 81 17 83 15 3 -2
-17 -17 -44 -32 -26 -15 -59 -34 -73 -42 l-25 -16 50 -13 c28 -7 259 -63 515
-122 256 -60 493 -116 527 -124 52 -13 65 -13 81 -1 23 16 135 267 130 292 -2
9 -53 47 -113 83 -99 60 -867 515 -889 527 -5 3 -7 -1 -4 -9z"/>
<path d="M2890 3651 c-201 -37 -398 -144 -527 -284 -99 -109 -185 -267 -225
-412 -18 -66 -21 -106 -21 -235 0 -187 17 -263 93 -417 114 -230 298 -393 534
-472 372 -123 766 1 1011 319 82 107 140 233 172 374 21 95 21 298 -1 394 -77
348 -338 625 -671 713 -88 23 -288 34 -365 20z m320 -212 c100 -27 241 -95
317 -153 150 -113 243 -291 260 -496 l6 -75 -23 30 c-13 17 -51 59 -85 95 -45
47 -65 75 -69 101 -24 138 -203 330 -451 482 -68 42 -60 45 45 16z"/>
<path d="M4925 3270 c-104 -32 -356 -108 -560 -170 -203 -61 -375 -117 -382
-123 -15 -15 13 -305 31 -324 8 -10 157 -15 595 -23 322 -5 585 -9 587 -7 1 1
-29 28 -68 60 -38 33 -67 61 -65 64 3 2 42 -14 87 -37 45 -23 84 -39 87 -37 4
5 -37 438 -53 569 l-6 47 -71 -64 c-39 -36 -73 -63 -75 -60 -2 2 17 38 42 81
26 42 46 77 44 79 -2 1 -88 -24 -193 -55z"/>
<path d="M911 3133 c8 -10 31 -39 53 -66 22 -26 37 -49 34 -52 -3 -3 -38 19
-79 49 -41 30 -75 53 -76 52 -3 -3 -43 -553 -43 -592 l0 -34 75 52 c41 28 77
49 80 47 3 -3 -20 -34 -51 -70 -35 -40 -50 -65 -42 -67 8 -1 270 29 583 68
385 48 574 75 583 84 17 16 40 312 26 326 -8 8 -1111 220 -1144 220 -10 0 -9
-4 1 -17z"/>
<path d="M4016 2617 c-18 -14 -98 -291 -90 -312 3 -8 -36 -68 -90 -139 -53
-68 -96 -133 -96 -143 0 -15 456 -471 769 -768 l84 -80 -7 55 c-4 30 -9 72
-13 94 -8 60 11 36 43 -51 15 -43 30 -81 33 -85 5 -5 358 443 384 489 7 12 -4
14 -70 13 -112 -2 -121 -1 -103 9 8 4 45 16 83 26 37 10 67 21 67 25 0 4 -206
112 -457 239 -252 128 -451 230 -443 228 8 -3 212 -87 454 -187 241 -100 440
-179 443 -177 2 3 -12 36 -31 74 -20 38 -36 74 -36 79 0 5 31 -24 68 -65 l68
-74 82 290 c45 159 82 295 82 301 0 16 -2 16 -82 -18 -112 -48 -114 -36 -8 41
33 24 57 45 53 46 -5 1 -255 23 -558 48 -302 24 -564 47 -582 49 -17 2 -38 -1
-47 -7z"/>
<path d="M1890 2554 c-63 -13 -290 -57 -505 -99 -214 -41 -417 -81 -450 -88
l-60 -12 78 -43 c44 -24 77 -46 74 -48 -3 -3 -42 4 -87 16 -45 12 -85 20 -90
18 -7 -3 9 -57 126 -426 l55 -172 50 75 c45 68 69 95 69 81 0 -3 -13 -42 -30
-87 -16 -46 -28 -84 -27 -86 3 -2 364 193 875 473 119 66 172 100 172 112 0
10 -20 81 -45 159 -41 129 -56 156 -83 152 -4 -1 -59 -12 -122 -25z"/>
<path d="M1638 1917 c-268 -166 -487 -305 -488 -308 0 -4 30 -10 67 -14 37 -4
76 -10 87 -15 23 -8 3 -13 -116 -26 l-58 -6 21 -30 c12 -16 99 -128 195 -249
l173 -220 10 38 c5 21 14 62 21 91 7 28 16 52 21 52 4 0 10 -40 11 -89 l3 -89
66 76 c238 275 680 795 694 816 20 30 24 23 -89 164 -64 81 -95 112 -110 111
-12 0 -240 -136 -508 -302z"/>
<path d="M3561 1922 c-68 -42 -128 -84 -134 -93 -8 -13 46 -137 239 -553 136
-295 251 -536 255 -536 4 0 10 15 13 34 4 19 14 58 24 88 l17 53 5 -102 5
-103 260 161 c143 88 264 164 268 169 5 4 -32 22 -82 40 -50 18 -91 35 -91 38
0 3 44 2 98 -2 l97 -7 -56 58 c-31 32 -185 200 -344 373 -330 361 -425 460
-440 459 -5 0 -66 -35 -134 -77z"/>
<path d="M2353 1928 c-16 -18 -64 -78 -106 -133 -42 -55 -190 -248 -330 -430
-140 -181 -253 -332 -252 -334 2 -2 38 4 80 14 42 9 79 14 82 11 3 -2 -32 -23
-76 -46 -45 -22 -79 -45 -76 -49 5 -9 518 -321 527 -321 3 0 2 21 -3 48 -15
93 -19 143 -10 138 5 -3 23 -42 41 -86 18 -45 34 -79 35 -78 13 14 404 1118
400 1129 -5 14 -255 169 -272 169 -5 0 -23 -15 -40 -32z"/>
<path d="M3250 1794 c-41 -8 -98 -19 -127 -25 -28 -5 -54 -17 -57 -25 -5 -13
60 -1165 67 -1187 1 -4 27 26 56 68 30 41 56 73 58 71 3 -2 -11 -44 -31 -92
-20 -48 -34 -89 -32 -92 6 -6 599 99 609 108 4 4 -24 35 -63 70 -39 34 -69 65
-66 67 2 2 41 -14 86 -37 45 -23 83 -40 85 -38 2 3 -339 890 -408 1063 -24 58
-26 60 -63 62 -22 1 -73 -5 -114 -13z"/>
<path d="M2692 1778 c-10 -12 -46 -136 -267 -903 -35 -121 -63 -221 -61 -222
1 -1 33 18 70 43 37 25 70 44 72 42 2 -3 -23 -37 -57 -76 -33 -40 -57 -72 -54
-72 3 0 142 -23 307 -50 165 -28 302 -49 305 -47 2 2 -17 39 -41 83 -25 43
-43 81 -40 84 3 3 35 -26 71 -64 l66 -70 -6 180 c-4 98 -12 366 -18 594 -8
299 -15 419 -23 428 -7 7 -60 21 -117 31 -175 31 -195 33 -207 19z"/>
</g>
</svg>
